<?xml version="1.0" encoding="UTF-8" standalone="no"?>
<!DOCTYPE svg PUBLIC "-//W3C//DTD SVG 1.1//EN"
 "http://www.w3.org/Graphics/SVG/1.1/DTD/svg11.dtd">
<!-- Generated by graphviz version 2.38.0 (20140413.2041)
 -->
<!-- Title: G Pages: 1 -->
<svg width="403pt" height="764pt"
 viewBox="0.00 0.00 403.23 764.00" xmlns="http://www.w3.org/2000/svg" xmlns:xlink="http://www.w3.org/1999/xlink">
<g id="graph0" class="graph" transform="scale(1 1) rotate(0) translate(4 760)">
<title>G</title>
<polygon fill="white" stroke="none" points="-4,4 -4,-760 399.234,-760 399.234,4 -4,4"/>
<g id="clust1" class="cluster"><title>cluster_Global</title>
<path fill="none" stroke="gray" d="M20,-44C20,-44 375.234,-44 375.234,-44 381.234,-44 387.234,-50 387.234,-56 387.234,-56 387.234,-736 387.234,-736 387.234,-742 381.234,-748 375.234,-748 375.234,-748 20,-748 20,-748 14,-748 8,-742 8,-736 8,-736 8,-56 8,-56 8,-50 14,-44 20,-44"/>
<text text-anchor="middle" x="197.617" y="-735.2" font-family="Times,serif" font-size="11.00" fill="gray">Global</text>
</g>
<g id="clust2" class="cluster"><title>cluster_\NV</title>
<path fill="none" stroke="gray" d="M28,-52C28,-52 367.234,-52 367.234,-52 373.234,-52 379.234,-58 379.234,-64 379.234,-64 379.234,-709 379.234,-709 379.234,-715 373.234,-721 367.234,-721 367.234,-721 28,-721 28,-721 22,-721 16,-715 16,-709 16,-709 16,-64 16,-64 16,-58 22,-52 28,-52"/>
<text text-anchor="middle" x="197.617" y="-708.2" font-family="Times,serif" font-size="11.00" fill="gray">NV</text>
</g>
<g id="clust3" class="cluster"><title>cluster_\NV\Theme</title>
<path fill="none" stroke="gray" d="M36,-60C36,-60 359.234,-60 359.234,-60 365.234,-60 371.234,-66 371.234,-72 371.234,-72 371.234,-682 371.234,-682 371.234,-688 365.234,-694 359.234,-694 359.234,-694 36,-694 36,-694 30,-694 24,-688 24,-682 24,-682 24,-72 24,-72 24,-66 30,-60 36,-60"/>
<text text-anchor="middle" x="197.617" y="-681.2" font-family="Times,serif" font-size="11.00" fill="gray">Theme</text>
</g>
<g id="clust4" class="cluster"><title>cluster_\NV\Theme\Utilities</title>
<path fill="none" stroke="gray" d="M44,-380C44,-380 351.234,-380 351.234,-380 357.234,-380 363.234,-386 363.234,-392 363.234,-392 363.234,-655 363.234,-655 363.234,-661 357.234,-667 351.234,-667 351.234,-667 44,-667 44,-667 38,-667 32,-661 32,-655 32,-655 32,-392 32,-392 32,-386 38,-380 44,-380"/>
<text text-anchor="middle" x="197.617" y="-654.2" font-family="Times,serif" font-size="11.00" fill="gray">Utilities</text>
</g>
<g id="clust5" class="cluster"><title>cluster_\NV\Theme\Custom</title>
<path fill="none" stroke="gray" d="M240.918,-301C240.918,-301 341.333,-301 341.333,-301 347.333,-301 353.333,-307 353.333,-313 353.333,-313 353.333,-360 353.333,-360 353.333,-366 347.333,-372 341.333,-372 341.333,-372 240.918,-372 240.918,-372 234.918,-372 228.918,-366 228.918,-360 228.918,-360 228.918,-313 228.918,-313 228.918,-307 234.918,-301 240.918,-301"/>
<text text-anchor="middle" x="291.125" y="-359.2" font-family="Times,serif" font-size="11.00" fill="gray">Custom</text>
</g>
<g id="clust6" class="cluster"><title>cluster_\NV\Theme\Hooks</title>
<path fill="none" stroke="gray" d="M240.918,-114C240.918,-114 341.333,-114 341.333,-114 347.333,-114 353.333,-120 353.333,-126 353.333,-126 353.333,-281 353.333,-281 353.333,-287 347.333,-293 341.333,-293 341.333,-293 240.918,-293 240.918,-293 234.918,-293 228.918,-287 228.918,-281 228.918,-281 228.918,-126 228.918,-126 228.918,-120 234.918,-114 240.918,-114"/>
<text text-anchor="middle" x="291.125" y="-280.2" font-family="Times,serif" font-size="11.00" fill="gray">Hooks</text>
</g>
<!-- \\NV\\Theme\\Utilities\\Php -->
<g id="node1" class="node"><title>\\NV\\Theme\\Utilities\\Php</title>
<polygon fill="none" stroke="black" points="318.125,-640 264.125,-640 264.125,-604 318.125,-604 318.125,-640"/>
<text text-anchor="middle" x="291.125" y="-618.7" font-family="Courier,monospace" font-size="11.00">Php</text>
</g>
<!-- \\NV\\Theme\\Utilities\\RequirementsCheck -->
<g id="node2" class="node"><title>\\NV\\Theme\\Utilities\\RequirementsCheck</title>
<polygon fill="none" stroke="black" points="355.344,-586 226.907,-586 226.907,-550 355.344,-550 355.344,-586"/>
<text text-anchor="middle" x="291.125" y="-564.7" font-family="Courier,monospace" font-size="11.00">RequirementsCheck</text>
</g>
<!-- \\NV\\Theme\\Utilities\\Theme -->
<g id="node3" class="node"><title>\\NV\\Theme\\Utilities\\Theme</title>
<polygon fill="none" stroke="black" points="318.125,-532 264.125,-532 264.125,-496 318.125,-496 318.125,-532"/>
<text text-anchor="middle" x="291.125" y="-510.7" font-family="Courier,monospace" font-size="11.00">Theme</text>
</g>
<!-- \\NV\\Theme\\Utilities\\HtmlGen -->
<g id="node4" class="node"><title>\\NV\\Theme\\Utilities\\HtmlGen</title>
<polygon fill="none" stroke="black" points="322.333,-478 259.917,-478 259.917,-442 322.333,-442 322.333,-478"/>
<text text-anchor="middle" x="291.125" y="-456.7" font-family="Courier,monospace" font-size="11.00">HtmlGen</text>
</g>
<!-- \\NV\\Theme\\Utilities\\MarkupGenerator -->
<g id="node6" class="node"><title>\\NV\\Theme\\Utilities\\MarkupGenerator</title>
<polygon fill="none" stroke="black" points="155.024,-478 39.9919,-478 39.9919,-442 155.024,-442 155.024,-478"/>
<text text-anchor="middle" x="97.5081" y="-456.7" font-family="Courier,monospace" font-size="11.00">MarkupGenerator</text>
</g>
<!-- \\NV\\Theme\\Utilities\\HtmlGen&#45;&gt;\\NV\\Theme\\Utilities\\MarkupGenerator -->
<g id="edge2" class="edge"><title>\\NV\\Theme\\Utilities\\HtmlGen&#45;&gt;\\NV\\Theme\\Utilities\\MarkupGenerator</title>
<path fill="none" stroke="black" d="M259.763,-460C234.529,-460 197.692,-460 165.594,-460"/>
<polygon fill="none" stroke="black" points="165.36,-456.5 155.36,-460 165.36,-463.5 165.36,-456.5"/>
</g>
<!-- \\NV\\Theme\\Utilities\\WordPress -->
<g id="node5" class="node"><title>\\NV\\Theme\\Utilities\\WordPress</title>
<polygon fill="none" stroke="black" points="329.036,-424 253.214,-424 253.214,-388 329.036,-388 329.036,-424"/>
<text text-anchor="middle" x="291.125" y="-402.7" font-family="Courier,monospace" font-size="11.00">WordPress</text>
</g>
<!-- \\NV\\Theme\\Custom\\WalkerComments -->
<g id="node7" class="node"><title>\\NV\\Theme\\Custom\\WalkerComments</title>
<polygon fill="none" stroke="black" points="345.541,-345 236.709,-345 236.709,-309 345.541,-309 345.541,-345"/>
<text text-anchor="middle" x="291.125" y="-323.7" font-family="Courier,monospace" font-size="11.00">WalkerComments</text>
</g>
<!-- \\Walker -->
<g id="node12" class="node"><title>\\Walker</title>
<ellipse fill="none" stroke="black" cx="97.5081" cy="-18" rx="37.762" ry="18"/>
<text text-anchor="middle" x="97.5081" y="-13.8" font-family="Times,serif" font-size="14.00" fill="gray">\Walker</text>
</g>
<!-- \\NV\\Theme\\Custom\\WalkerComments&#45;&gt;\\Walker -->
<g id="edge1" class="edge"><title>\\NV\\Theme\\Custom\\WalkerComments&#45;&gt;\\Walker</title>
<path fill="none" stroke="black" d="M242.535,-308.953C236.888,-305.54 231.535,-301.574 227.016,-297 154.281,-223.379 117.974,-101.048 104.662,-46.1639"/>
<polygon fill="none" stroke="black" points="107.997,-45.055 102.303,-36.1206 101.183,-46.6561 107.997,-45.055"/>
</g>
<!-- \\NV\\Theme\\Hooks\\ThemeCustomize -->
<g id="node8" class="node"><title>\\NV\\Theme\\Hooks\\ThemeCustomize</title>
<polygon fill="none" stroke="black" points="345.541,-266 236.709,-266 236.709,-230 345.541,-230 345.541,-266"/>
<text text-anchor="middle" x="291.125" y="-244.7" font-family="Courier,monospace" font-size="11.00">ThemeCustomize</text>
</g>
<!-- \\NV\\Theme\\Hooks\\Editor -->
<g id="node9" class="node"><title>\\NV\\Theme\\Hooks\\Editor</title>
<polygon fill="none" stroke="black" points="318.733,-212 263.517,-212 263.517,-176 318.733,-176 318.733,-212"/>
<text text-anchor="middle" x="291.125" y="-190.7" font-family="Courier,monospace" font-size="11.00">Editor</text>
</g>
<!-- \\NV\\Theme\\Hooks\\Config -->
<g id="node10" class="node"><title>\\NV\\Theme\\Hooks\\Config</title>
<polygon fill="none" stroke="black" points="318.733,-158 263.517,-158 263.517,-122 318.733,-122 318.733,-158"/>
<text text-anchor="middle" x="291.125" y="-136.7" font-family="Courier,monospace" font-size="11.00">Config</text>
</g>
<!-- \\NV\\Theme\\NV -->
<g id="node11" class="node"><title>\\NV\\Theme\\NV</title>
<polygon fill="none" stroke="black" points="318.125,-104 264.125,-104 264.125,-68 318.125,-68 318.125,-104"/>
<text text-anchor="middle" x="291.125" y="-82.7" font-family="Courier,monospace" font-size="11.00">NV</text>
</g>
</g>
</svg>
